<?xml version="1.0" encoding="utf-8"?>
<!-- Generator: Adobe Illustrator 21.1.0, SVG Export Plug-In . SVG Version: 6.00 Build 0)  -->
<svg version="1.1" id="Слой_1" xmlns="http://www.w3.org/2000/svg" xmlns:xlink="http://www.w3.org/1999/xlink" x="0px" y="0px"
	 viewBox="0 0 248.5 332.8" style="enable-background:new 0 0 248.5 332.8;" xml:space="preserve">
<style type="text/css">
	.st0{clip-path:url(#SVGID_2_);}
	.st1{clip-path:url(#SVGID_4_);fill:#EAEAEA;}
	.st2{clip-path:url(#SVGID_4_);fill:#FFFFFF;}
	
		.st3{clip-path:url(#SVGID_4_);fill:none;stroke:#383C43;stroke-width:7;stroke-linecap:round;stroke-linejoin:round;stroke-miterlimit:10;}
	.st4{clip-path:url(#SVGID_4_);fill:#FAD167;}
	.st5{clip-path:url(#SVGID_4_);}
	.st6{clip-path:url(#SVGID_6_);fill:#FCD42D;}
</style>
<g>
	<defs>
		<rect id="SVGID_1_" width="248.5" height="332.8"/>
	</defs>
	<clipPath id="SVGID_2_">
		<use xlink:href="#SVGID_1_"  style="overflow:visible;"/>
	</clipPath>
	<g class="st0">
		<defs>
			<rect id="SVGID_3_" width="248.5" height="332.8"/>
		</defs>
		<clipPath id="SVGID_4_">
			<use xlink:href="#SVGID_3_"  style="overflow:visible;"/>
		</clipPath>
		<path class="st1" d="M225,171.5h-24c3.3,0,6-2.7,6-6H23c0,3.3-2.3,6,1,6H5c-2.8,0-5,2.3-5,5v151.3c0,2.8,2.3,5,5,5h220
			c2.8,0,5-2.3,5-5V176.5C230,173.7,227.8,171.5,225,171.5"/>
		<path class="st2" d="M240,317.8H20c-2.8,0-5-2.3-5-5V161.5c0-2.8,2.3-5,5-5h220c2.8,0,5,2.3,5,5v151.3
			C245,315.6,242.8,317.8,240,317.8"/>
		<path class="st3" d="M240,317.8H20c-2.8,0-5-2.3-5-5V161.5c0-2.8,2.3-5,5-5h220c2.8,0,5,2.3,5,5v151.3
			C245,315.6,242.8,317.8,240,317.8z"/>
		<line class="st2" x1="14.9" y1="196.1" x2="73.1" y2="196.1"/>
		<line class="st3" x1="14.9" y1="196.1" x2="73.1" y2="196.1"/>
		<line class="st2" x1="15.2" y1="217.9" x2="57" y2="217.9"/>
		<line class="st3" x1="15.2" y1="217.9" x2="57" y2="217.9"/>
		<line class="st2" x1="241.6" y1="293.9" x2="162" y2="293.9"/>
		<line class="st3" x1="241.6" y1="293.9" x2="162" y2="293.9"/>
		<line class="st2" x1="241.9" y1="272.1" x2="178.9" y2="272.1"/>
		<line class="st3" x1="241.9" y1="272.1" x2="178.9" y2="272.1"/>
		<line class="st2" x1="241.6" y1="250.4" x2="196.3" y2="250.4"/>
		<line class="st3" x1="241.6" y1="250.4" x2="196.3" y2="250.4"/>
		<path class="st2" d="M130,3.5L130,3.5c-50.6,0-92,41.4-92,92v55c0,3.3,2.7,6,6,6h27.5c-3.3,0-6-2.7-6-6V96.2c0-35.2,28.8-64,64-64
			h1c35.2,0,64,28.8,64,64v54.3c0,3.3-2.7,6-6,6H216c3.3,0,6-2.7,6-6v-55C222,44.9,180.6,3.5,130,3.5"/>
		<path class="st3" d="M130,3.5L130,3.5c-50.6,0-92,41.4-92,92v55c0,3.3,2.7,6,6,6h27.5c-3.3,0-6-2.7-6-6V96.2c0-35.2,28.8-64,64-64
			h1c35.2,0,64,28.8,64,64v54.3c0,3.3-2.7,6-6,6H216c3.3,0,6-2.7,6-6v-55C222,44.9,180.6,3.5,130,3.5z"/>
		<polygon class="st4" points="129.4,193 130.2,270.5 115.4,271 122.4,232 109.4,213 115,196.1 		"/>
		<g class="st5">
			<g>
				<defs>
					<rect id="SVGID_5_" x="129.2" y="193" width="21" height="78"/>
				</defs>
				<clipPath id="SVGID_6_">
					<use xlink:href="#SVGID_5_"  style="overflow:visible;"/>
				</clipPath>
				<polygon class="st6" points="129.2,193 129.4,270.5 144.2,271 137.2,232 150.2,213 144.6,196.1 130.2,193 				"/>
			</g>
		</g>
		<path class="st3" d="M148.5,213c0-10.8-8.7-19.5-19.5-19.5c-10.8,0-19.5,8.7-19.5,19.5c0,7.9,4.7,14.7,11.5,17.8l-5,39.8l28.1-0.1
			l-5.3-40.6C144.6,226.5,148.5,220.2,148.5,213z"/>
	</g>
</g>
</svg>
