<?xml version="1.0" encoding="utf-8"?>
<!-- Generator: Adobe Illustrator 21.1.0, SVG Export Plug-In . SVG Version: 6.00 Build 0)  -->
<svg version="1.1" id="Слой_1" xmlns="http://www.w3.org/2000/svg" xmlns:xlink="http://www.w3.org/1999/xlink" x="0px" y="0px"
	 viewBox="0 0 398.2 334.1" style="enable-background:new 0 0 398.2 334.1;" xml:space="preserve">
<style type="text/css">
	.st0{clip-path:url(#SVGID_2_);}
	.st1{clip-path:url(#SVGID_4_);fill:#EAEAEA;}
	.st2{clip-path:url(#SVGID_4_);fill:#FFFFFF;}
	
		.st3{clip-path:url(#SVGID_4_);fill:none;stroke:#292929;stroke-width:7;stroke-linecap:round;stroke-linejoin:round;stroke-miterlimit:10;}
	.st4{clip-path:url(#SVGID_4_);fill:#292929;}
	.st5{clip-path:url(#SVGID_4_);}
	.st6{clip-path:url(#SVGID_6_);fill:#FAD167;}
	.st7{clip-path:url(#SVGID_8_);fill:#FCD42D;}
</style>
<g>
	<defs>
		<rect id="SVGID_1_" width="398.2" height="334.1"/>
	</defs>
	<clipPath id="SVGID_2_">
		<use xlink:href="#SVGID_1_"  style="overflow:visible;"/>
	</clipPath>
	<g class="st0">
		<defs>
			<rect id="SVGID_3_" width="398.2" height="334.1"/>
		</defs>
		<clipPath id="SVGID_4_">
			<use xlink:href="#SVGID_3_"  style="overflow:visible;"/>
		</clipPath>
		<path class="st1" d="M352.6,265.2H5c-2.8,0-5-2.3-5-5V22.3c0-2.8,2.3-5,5-5h347.6c2.8,0,5,2.3,5,5v237.9
			C357.6,262.9,355.4,265.2,352.6,265.2"/>
		<path class="st2" d="M369.1,251.4H21.5c-2.8,0-5-2.3-5-5V8.5c0-2.8,2.3-5,5-5h347.6c2.8,0,5,2.3,5,5v237.9
			C374.1,249.1,371.9,251.4,369.1,251.4"/>
		<path class="st3" d="M369.1,251.4H21.5c-2.8,0-5-2.3-5-5V8.5c0-2.8,2.3-5,5-5h347.6c2.8,0,5,2.3,5,5v237.9
			C374.1,249.1,371.9,251.4,369.1,251.4z"/>
		<path class="st3" d="M274.7,299.1l-31-24.5v-23.2h-93v23.2l-34.9,24.5c0,0-1.3,1.6-1.3,3.7v10.8c0,2,1.6,3.7,3.7,3.7h155.3
			c2,0,3.7-1.6,3.7-3.7v-10.8C277.3,300.8,274.7,299.1,274.7,299.1z"/>
		<line class="st3" x1="116.2" y1="299.1" x2="275" y2="299.1"/>
		<line class="st3" x1="16.8" y1="204.9" x2="374.4" y2="204.9"/>
		<path class="st2" d="M389.5,330.6H276.9c-2.8,0-5-2.3-5-5v-208c0-2.8,2.3-5,5-5h112.6c2.8,0,5,2.3,5,5v208
			C394.5,328.4,392.3,330.6,389.5,330.6"/>
		<path class="st3" d="M389.5,330.6H276.9c-2.8,0-5-2.3-5-5v-208c0-2.8,2.3-5,5-5h112.6c2.8,0,5,2.3,5,5v208
			C394.5,328.4,392.3,330.6,389.5,330.6z"/>
		<line class="st3" x1="274.6" y1="292.6" x2="394.7" y2="292.6"/>
		<line class="st3" x1="274.6" y1="135.1" x2="394.7" y2="135.1"/>
		<path class="st4" d="M341.9,311.3c0,4.8-3.9,8.7-8.7,8.7c-4.8,0-8.7-3.9-8.7-8.7c0-4.8,3.9-8.7,8.7-8.7
			C338,302.6,341.9,306.5,341.9,311.3"/>
		<line class="st3" x1="54.4" y1="31.5" x2="134" y2="31.5"/>
		<line class="st3" x1="54.1" y1="53.3" x2="117.2" y2="53.3"/>
		<line class="st3" x1="54.4" y1="75.1" x2="99.7" y2="75.1"/>
		<polygon class="st3" points="101,107.6 177,180.6 290,54.6 267,36.6 176,137.6 123,85.6 		"/>
		<g class="st5">
			<g>
				<defs>
					<rect id="SVGID_5_" x="101" y="86.6" width="76" height="93"/>
				</defs>
				<clipPath id="SVGID_6_">
					<use xlink:href="#SVGID_5_"  style="overflow:visible;"/>
				</clipPath>
				<polygon class="st6" points="177,179.6 177,137.6 123,86.6 101,108.6 				"/>
			</g>
		</g>
		<g class="st5">
			<g>
				<defs>
					<rect id="SVGID_7_" x="176" y="36.6" width="114" height="143"/>
				</defs>
				<clipPath id="SVGID_8_">
					<use xlink:href="#SVGID_7_"  style="overflow:visible;"/>
				</clipPath>
				<polygon class="st7" points="176,179.6 176,137.6 267,36.6 290,54.6 				"/>
			</g>
		</g>
	</g>
</g>
</svg>
