<?xml version="1.0" encoding="utf-8"?>
<!-- Generator: Adobe Illustrator 21.1.0, SVG Export Plug-In . SVG Version: 6.00 Build 0)  -->
<svg version="1.1" id="Слой_1" xmlns="http://www.w3.org/2000/svg" xmlns:xlink="http://www.w3.org/1999/xlink" x="0px" y="0px"
	 viewBox="0 0 291.5 355.1" style="enable-background:new 0 0 291.5 355.1;" xml:space="preserve">
<style type="text/css">
	.st0{clip-path:url(#SVGID_2_);fill:#EAEAEA;}
	.st1{clip-path:url(#SVGID_2_);fill:#FFFFFF;}
	
		.st2{clip-path:url(#SVGID_2_);fill:none;stroke:#383C43;stroke-width:7;stroke-linecap:round;stroke-linejoin:round;stroke-miterlimit:10;}
	.st3{clip-path:url(#SVGID_2_);fill:#FAD167;}
</style>
<g>
	<defs>
		<rect id="SVGID_1_" width="291.5" height="355.1"/>
	</defs>
	<clipPath id="SVGID_2_">
		<use xlink:href="#SVGID_1_"  style="overflow:visible;"/>
	</clipPath>
	<path class="st0" d="M134.5,17.5C42.5,17.5,0,41.8,0,41.8v179c0,75.5,133.9,134.5,134.5,134.2c0.6,0.3,135.5-58.7,135.5-134.2v-179
		C270,41.8,226.5,17.5,134.5,17.5"/>
	<path class="st1" d="M152.5,3.5C60.5,3.5,18,27.8,18,27.8v179c0,75.5,133.9,134.5,134.5,134.2c0.6,0.3,135.5-58.7,135.5-134.2v-179
		C288,27.8,244.5,3.5,152.5,3.5"/>
	<path class="st2" d="M152.5,3.5C60.5,3.5,18,27.8,18,27.8v179c0,75.5,133.9,134.5,134.5,134.2c0.6,0.3,135.5-58.7,135.5-134.2v-179
		C288,27.8,244.5,3.5,152.5,3.5z"/>
	<line class="st1" x1="20.4" y1="56.4" x2="100" y2="56.4"/>
	<line class="st2" x1="20.4" y1="56.4" x2="100" y2="56.4"/>
	<line class="st1" x1="20.1" y1="78.1" x2="83.2" y2="78.1"/>
	<line class="st2" x1="20.1" y1="78.1" x2="83.2" y2="78.1"/>
	<line class="st1" x1="20.4" y1="99.9" x2="65.7" y2="99.9"/>
	<line class="st2" x1="20.4" y1="99.9" x2="65.7" y2="99.9"/>
	<line class="st1" x1="155" y1="3.5" x2="155" y2="42.5"/>
	<line class="st2" x1="155" y1="3.5" x2="155" y2="42.5"/>
	<line class="st1" x1="153" y1="271.5" x2="153" y2="340.5"/>
	<line class="st2" x1="153" y1="271.5" x2="153" y2="340.5"/>
	<path class="st3" d="M171.3,192.9c0-5.5-1.6-9.9-4.7-13.4c-3.1-3.4-8.5-6.7-16.2-9.6c-15-5.5-26.2-11.6-33.4-18.3
		c-7.3-6.7-10.9-16.2-10.9-28.5c0-11.4,3.6-20.7,10.9-28c7.3-7.3,17.1-11.5,29.4-12.8V60.5h16.1v22c11.9,1.8,21.3,6.7,28.1,14.9
		c6.8,8.2,10.1,18.8,10,31.9l-0.3,0.5h-28.9c0-8-1.6-14.1-4.9-18.5c-3.3-4.3-7.8-6.5-13.4-6.5c-5.8,0-10.1,1.7-13,5
		c-2.8,3.3-4.3,7.8-4.3,13.3c0,5.3,1.5,9.6,4.5,12.8c3,3.3,8.5,6.5,16.6,9.7c14.9,5.9,26,12.2,33.2,18.9
		c7.2,6.7,10.8,16.1,10.8,28.1c0,11.8-3.6,21.2-10.9,28.2c-7.2,7-17.1,11.2-29.5,12.5v20.1h-16.1v-20c-12.7-1.3-23.1-5.8-31.4-13.4
		c-8.3-7.7-12.2-19-12-33.8l0.2-0.5h28.9c0,9.1,2.1,15.6,6.2,19.5c4.2,3.9,9.5,5.9,15.9,5.9c6.2,0,10.9-1.6,14.2-4.9
		C169.6,202.9,171.3,198.5,171.3,192.9"/>
	<path class="st2" d="M171.3,192.9c0-5.5-1.6-9.9-4.7-13.4c-3.1-3.4-8.5-6.7-16.2-9.6c-15-5.5-26.2-11.6-33.4-18.3
		c-7.3-6.7-10.9-16.2-10.9-28.5c0-11.4,3.6-20.7,10.9-28c7.3-7.3,17.1-11.5,29.4-12.8V60.5h16.1v22c11.9,1.8,21.3,6.7,28.1,14.9
		c6.8,8.2,10.1,18.8,10,31.9l-0.3,0.5h-28.9c0-8-1.6-14.1-4.9-18.5c-3.3-4.3-7.8-6.5-13.4-6.5c-5.8,0-10.1,1.7-13,5
		c-2.8,3.3-4.3,7.8-4.3,13.3c0,5.3,1.5,9.6,4.5,12.8c3,3.3,8.5,6.5,16.6,9.7c14.9,5.9,26,12.2,33.2,18.9
		c7.2,6.7,10.8,16.1,10.8,28.1c0,11.8-3.6,21.2-10.9,28.2c-7.2,7-17.1,11.2-29.5,12.5v20.1h-16.1v-20c-12.7-1.3-23.1-5.8-31.4-13.4
		c-8.3-7.7-12.2-19-12-33.8l0.2-0.5h28.9c0,9.1,2.1,15.6,6.2,19.5c4.2,3.9,9.5,5.9,15.9,5.9c6.2,0,10.9-1.6,14.2-4.9
		C169.6,202.9,171.3,198.5,171.3,192.9z"/>
</g>
</svg>
