<?xml version="1.0" encoding="utf-8"?>
<!-- Generator: Adobe Illustrator 21.1.0, SVG Export Plug-In . SVG Version: 6.00 Build 0)  -->
<svg version="1.1" id="Слой_1" xmlns="http://www.w3.org/2000/svg" xmlns:xlink="http://www.w3.org/1999/xlink" x="0px" y="0px"
	 viewBox="0 0 402.9 315.5" style="enable-background:new 0 0 402.9 315.5;" xml:space="preserve">
<style type="text/css">
	.st0{clip-path:url(#SVGID_2_);}
	.st1{clip-path:url(#SVGID_4_);fill:#EAEAEA;}
	.st2{clip-path:url(#SVGID_4_);fill:#FFFFFF;}
	.st3{clip-path:url(#SVGID_4_);fill:none;stroke:#292929;stroke-width:7;stroke-miterlimit:10;}
	.st4{clip-path:url(#SVGID_4_);fill:#292929;}
	.st5{clip-path:url(#SVGID_4_);fill:none;stroke:#292929;stroke-width:2;stroke-miterlimit:10;}
	
		.st6{clip-path:url(#SVGID_4_);fill:none;stroke:#292929;stroke-width:7;stroke-linecap:round;stroke-linejoin:round;stroke-miterlimit:10;}
	.st7{clip-path:url(#SVGID_4_);}
	.st8{clip-path:url(#SVGID_6_);fill:#FAD167;}
	.st9{clip-path:url(#SVGID_8_);fill:#FCD42D;}
	.st10{fill:#FFFFFF;}
	.st11{font-family:'GothamBlack';}
	.st12{font-size:45px;}
</style>
<g>
	<defs>
		<rect id="SVGID_1_" width="402.9" height="315.5"/>
	</defs>
	<clipPath id="SVGID_2_">
		<use xlink:href="#SVGID_1_"  style="overflow:visible;"/>
	</clipPath>
	<g class="st0">
		<defs>
			<rect id="SVGID_3_" width="402.9" height="315.5"/>
		</defs>
		<clipPath id="SVGID_4_">
			<use xlink:href="#SVGID_3_"  style="overflow:visible;"/>
		</clipPath>
		<path class="st1" d="M376.4,248.5H5c-2.8,0-5-2.3-5-5v-107c0-2.8,2.3-5,5-5h371.4c2.8,0,5,2.3,5,5v107
			C381.4,246.3,379.2,248.5,376.4,248.5"/>
		<path class="st2" d="M394.4,227.5H23c-2.8,0-5-2.3-5-5v-107c0-2.8,2.3-5,5-5h371.4c2.8,0,5,2.3,5,5v107
			C399.4,225.3,397.2,227.5,394.4,227.5"/>
		<path class="st3" d="M394.4,227.5H23c-2.8,0-5-2.3-5-5v-107c0-2.8,2.3-5,5-5h371.4c2.8,0,5,2.3,5,5v107
			C399.4,225.3,397.2,227.5,394.4,227.5z"/>
		<path class="st2" d="M272.7,237.5h-128c-2.8,0-5-2.3-5-5V94c0-2.8,2.3-5,5-5h128c2.8,0,5,2.3,5,5v138.5
			C277.7,235.3,275.5,237.5,272.7,237.5"/>
		<path class="st3" d="M272.7,237.5h-128c-2.8,0-5-2.3-5-5V94c0-2.8,2.3-5,5-5h128c2.8,0,5,2.3,5,5v138.5
			C277.7,235.3,275.5,237.5,272.7,237.5z"/>
		<path class="st2" d="M241.9,88.5h-66.4c-2.8,0-5-2.3-5-5v-18c0-2.8,2.3-5,5-5h66.4c2.8,0,5,2.3,5,5v18
			C246.9,86.3,244.6,88.5,241.9,88.5"/>
		<path class="st3" d="M241.9,88.5h-66.4c-2.8,0-5-2.3-5-5v-18c0-2.8,2.3-5,5-5h66.4c2.8,0,5,2.3,5,5v18
			C246.9,86.3,244.6,88.5,241.9,88.5z"/>
		<path class="st2" d="M394.3,32.5h-84l-63.5,30h-71.5h-2.3c-0.8,0-1.4-0.8-1.1-1.6l8.4-21.4c4-6,10-5,10-5h44.5l75.5-31h84
			c2.8,0,5,2.3,5,5v19C399.3,30.3,397.1,32.5,394.3,32.5"/>
		<path class="st3" d="M394.3,32.5h-84l-63.5,30h-71.5h-2.3c-0.8,0-1.4-0.8-1.1-1.6l8.4-21.4c4-6,10-5,10-5h44.5l75.5-31h84
			c2.8,0,5,2.3,5,5v19C399.3,30.3,397.1,32.5,394.3,32.5z"/>
		<path class="st2" d="M209.3,9.5L209.3,9.5c-7.7,0-14,6.3-14,14v8.2c0,1.6,1.3,2.8,2.8,2.8h22.3c1.6,0,2.8-1.3,2.8-2.8v-8.2
			C223.3,15.8,217,9.5,209.3,9.5"/>
		<path class="st3" d="M209.3,9.5L209.3,9.5c-7.7,0-14,6.3-14,14v8.2c0,1.6,1.3,2.8,2.8,2.8h22.3c1.6,0,2.8-1.3,2.8-2.8v-8.2
			C223.3,15.8,217,9.5,209.3,9.5z"/>
		<path class="st4" d="M77.1,243c-0.8,0-1.7,0.5-2,1.3c-4.6,8.8-10,16.4-14.2,23.5c-4.2,7.1-7.4,13.9-7.4,21
			c0,14.1,10.5,25.7,23.7,25.7c13.2,0,23.7-11.6,23.7-25.7c0-7.2-3.2-13.9-7.4-21c-4.2-7.1-9.5-14.7-14.2-23.5
			C78.8,243.5,77.9,243,77.1,243 M77.1,250.1c4.2,7.5,8.7,14.2,12.2,20.1c4.1,6.9,6.8,12.9,6.8,18.6c0,11.7-8.6,21-19,21
			s-19-9.2-19-21c0-5.7,2.7-11.7,6.8-18.6C68.4,264.3,72.8,257.6,77.1,250.1 M66.3,286.6c-1.4,0.1-2.5,1.7-2.1,3
			c1,3.6,2.6,6.8,5.1,9.2c2.5,2.3,5.9,3.7,9.8,3.7c1.2,0,2.4-1.1,2.4-2.4c0-1.3-1.2-2.4-2.4-2.4c-2.8,0-4.9-0.9-6.6-2.5
			c-1.7-1.6-3-3.9-3.8-6.8C68.5,287.4,67.4,286.6,66.3,286.6"/>
		<path class="st5" d="M77.1,243c-0.8,0-1.7,0.5-2,1.3c-4.6,8.8-10,16.4-14.2,23.5c-4.2,7.1-7.4,13.9-7.4,21
			c0,14.1,10.5,25.7,23.7,25.7c13.2,0,23.7-11.6,23.7-25.7c0-7.2-3.2-13.9-7.4-21c-4.2-7.1-9.5-14.7-14.2-23.5
			C78.8,243.5,77.9,243,77.1,243z M77.1,250.1c4.2,7.5,8.7,14.2,12.2,20.1c4.1,6.9,6.8,12.9,6.8,18.6c0,11.7-8.6,21-19,21
			s-19-9.2-19-21c0-5.7,2.7-11.7,6.8-18.6C68.4,264.3,72.8,257.6,77.1,250.1z M66.3,286.6c-1.4,0.1-2.5,1.7-2.1,3
			c1,3.6,2.6,6.8,5.1,9.2c2.5,2.3,5.9,3.7,9.8,3.7c1.2,0,2.4-1.1,2.4-2.4c0-1.3-1.2-2.4-2.4-2.4c-2.8,0-4.9-0.9-6.6-2.5
			c-1.7-1.6-3-3.9-3.8-6.8C68.5,287.4,67.4,286.6,66.3,286.6z"/>
		<polyline class="st2" points="108.8,155 69.8,186 95.8,199 75.1,227.5 		"/>
		<polyline class="st6" points="108.8,155 69.8,186 95.8,199 75.1,227.5 		"/>
		<line class="st2" x1="278.3" y1="138.9" x2="341.3" y2="138.9"/>
		<line class="st6" x1="278.3" y1="138.9" x2="341.3" y2="138.9"/>
		<line class="st2" x1="22.3" y1="138.9" x2="85.3" y2="138.9"/>
		<line class="st6" x1="22.3" y1="138.9" x2="85.3" y2="138.9"/>
		<line class="st2" x1="383.3" y1="138.9" x2="395.3" y2="138.9"/>
		<line class="st6" x1="383.3" y1="138.9" x2="395.3" y2="138.9"/>
		<line class="st2" x1="356.3" y1="138.9" x2="368.3" y2="138.9"/>
		<line class="st6" x1="356.3" y1="138.9" x2="368.3" y2="138.9"/>
		<g class="st7">
			<g>
				<defs>
					<rect id="SVGID_5_" x="55.7" y="248.5" width="42" height="62.3"/>
				</defs>
				<clipPath id="SVGID_6_">
					<use xlink:href="#SVGID_5_"  style="overflow:visible;"/>
				</clipPath>
				<path class="st8" d="M76.3,248.5c0,0-25,26-20,43s7,17,17,19s27-8,24-19s-15-32-15-32L76.3,248.5z"/>
			</g>
		</g>
		<path class="st2" d="M210.3,192.5h-26.5c-7.5,0-12.1-8.1-8.4-14.6l13.2-22.9l13.2-22.9c3.7-6.5,13.1-6.5,16.8,0L232,155l13.2,22.9
			c3.7,6.5-0.9,14.6-8.4,14.6H210.3z"/>
		<path class="st6" d="M210.3,192.5h-26.5c-7.5,0-12.1-8.1-8.4-14.6l13.2-22.9l13.2-22.9c3.7-6.5,13.1-6.5,16.8,0L232,155l13.2,22.9
			c3.7,6.5-0.9,14.6-8.4,14.6H210.3z"/>
		<g class="st7">
			<g>
				<defs>
					<rect id="SVGID_7_" x="174.1" y="128.2" width="72.4" height="65.3"/>
				</defs>
				<clipPath id="SVGID_8_">
					<use xlink:href="#SVGID_7_"  style="overflow:visible;"/>
				</clipPath>
				<path class="st9" d="M210.3,193.5h-26.5c-7.5,0-12.1-8.1-8.4-14.6l13.2-22.9l13.2-22.9c3.7-6.5,13.1-6.5,16.8,0L232,156
					l13.2,22.9c3.7,6.5-0.9,14.6-8.4,14.6H210.3z"/>
			</g>
		</g>
	</g>
	<g class="st0">
		<text transform="matrix(1 0 0 1 202.8389 178.9995)" class="st10 st11 st12">!</text>
	</g>
</g>
</svg>
