<?xml version="1.0" encoding="utf-8"?>
<!-- Generator: Adobe Illustrator 21.1.0, SVG Export Plug-In . SVG Version: 6.00 Build 0)  -->
<svg version="1.1" id="Слой_1" xmlns="http://www.w3.org/2000/svg" xmlns:xlink="http://www.w3.org/1999/xlink" x="0px" y="0px"
	 viewBox="0 0 335.7 354.3" style="enable-background:new 0 0 335.7 354.3;" xml:space="preserve">
<style type="text/css">
	.st0{clip-path:url(#SVGID_2_);}
	.st1{clip-path:url(#SVGID_4_);fill:#EAEAEA;}
	.st2{clip-path:url(#SVGID_4_);fill:#FFFFFF;}
	
		.st3{clip-path:url(#SVGID_4_);fill:none;stroke:#383C43;stroke-width:7;stroke-linecap:round;stroke-linejoin:round;stroke-miterlimit:10;}
	.st4{clip-path:url(#SVGID_4_);fill:#FAD167;}
	.st5{clip-path:url(#SVGID_4_);fill:#383C43;}
	.st6{clip-path:url(#SVGID_4_);fill:#FFFDFD;}
	.st7{clip-path:url(#SVGID_4_);fill:none;stroke:#FFFFFF;stroke-width:4;stroke-linecap:round;stroke-miterlimit:10;}
	.st8{clip-path:url(#SVGID_4_);}
	.st9{clip-path:url(#SVGID_6_);fill:none;stroke:#FCD42D;stroke-width:10;stroke-miterlimit:10;}
</style>
<g>
	<defs>
		<rect id="SVGID_1_" width="335.7" height="354.3"/>
	</defs>
	<clipPath id="SVGID_2_">
		<use xlink:href="#SVGID_1_"  style="overflow:visible;"/>
	</clipPath>
	<g class="st0">
		<defs>
			<rect id="SVGID_3_" width="335.7" height="354.3"/>
		</defs>
		<clipPath id="SVGID_4_">
			<use xlink:href="#SVGID_3_"  style="overflow:visible;"/>
		</clipPath>
		<path class="st1" d="M318.6,184.7c0,88-71.3,159.3-159.3,159.3C71.3,344,0,272.7,0,184.7c0-88,71.3-159.3,159.3-159.3
			C247.3,25.4,318.6,96.7,318.6,184.7"/>
		<line class="st2" x1="79" y1="337.2" x2="265" y2="3.5"/>
		<line class="st3" x1="79" y1="337.2" x2="265" y2="3.5"/>
		<path class="st2" d="M236.6,312.2c-43.7,20.9-96.5,21-142-4.4C20,266.2-6.8,172.1,34.8,97.6C76.4,23,170.5-3.8,245,37.8
			c74.6,41.6,101.3,135.7,59.7,210.3c-3.6,6.5-7.6,12.6-12,18.3"/>
		<path class="st3" d="M236.6,312.2c-43.7,20.9-96.5,21-142-4.4C20,266.2-6.8,172.1,34.8,97.6C76.4,23,170.5-3.8,245,37.8
			c74.6,41.6,101.3,135.7,59.7,210.3c-3.6,6.5-7.6,12.6-12,18.3"/>
		<line class="st2" x1="34.9" y1="97.6" x2="305.1" y2="248.2"/>
		<line class="st3" x1="34.9" y1="97.6" x2="305.1" y2="248.2"/>
		<path class="st2" d="M94.7,307.3c35.9,20,75.7,24.5,109.9,15.5c-13.6-32.1-39-61.2-73.8-80.6C96,222.8,58,216.5,23.7,221.7
			C33.9,255.7,58.7,287.3,94.7,307.3"/>
		<path class="st3" d="M94.7,307.3c35.9,20,75.7,24.5,109.9,15.5c-13.6-32.1-39-61.2-73.8-80.6C96,222.8,58,216.5,23.7,221.7
			C33.9,255.7,58.7,287.3,94.7,307.3z"/>
		<path class="st2" d="M243.6,38.1c-35.9-20-75.7-24.5-109.9-15.5c13.6,32.1,39,61.2,73.8,80.6c34.7,19.4,72.7,25.7,107.1,20.5
			C304.3,89.7,279.6,58.1,243.6,38.1"/>
		<path class="st3" d="M243.6,38.1c-35.9-20-75.7-24.5-109.9-15.5c13.6,32.1,39,61.2,73.8,80.6c34.7,19.4,72.7,25.7,107.1,20.5
			C304.3,89.7,279.6,58.1,243.6,38.1z"/>
		<path class="st3" d="M246.9,40.8c0,0,63.9,74.6,10,178.3C203,322.9,98.2,308,98.2,308"/>
		<path class="st3" d="M243.1,39.2c0,0-97.2-14.1-156.1,86.9c-58.9,101,9.7,181.5,9.7,181.5"/>
		<polygon class="st4" points="254.6,264.5 326.5,305.7 304.5,312.4 317.9,338.3 307.4,345.9 287.2,326.8 273.8,345 		"/>
		<path class="st5" d="M253.2,257c-1.9-1-4.2-0.4-5.2,1.5c-0.5,0.8-0.6,1.8-0.4,2.7l20.7,89.4c0.5,2.1,2.5,3.4,4.6,2.9
			c0.9-0.2,1.6-0.7,2.2-1.4l14.1-18.3l14.4,19c1.3,1.7,3.7,2,5.4,0.8l16.3-12.2c1.7-1.3,2.1-3.7,0.8-5.4c0,0,0,0,0,0L311.7,317
			l21.6-8.9c2-0.8,2.9-3.1,2.1-5c-0.3-0.8-0.9-1.5-1.7-1.9L253.2,257z M304.1,311.8c-2,0.8-2.9,3.1-2.1,5c0.1,0.3,0.3,0.6,0.5,0.8
			l15.1,19.8l-10.1,7.6l-15.2-20c-1.3-1.7-3.7-2-5.4-0.7c-0.3,0.2-0.5,0.4-0.7,0.7L274,340.9L257,267.9l65.9,36.2L304.1,311.8z"/>
		<path class="st6" d="M105.5,218.3c0,18-14.6,32.6-32.6,32.6c-18,0-32.6-14.6-32.6-32.6s14.6-32.6,32.6-32.6
			C90.9,185.7,105.5,200.3,105.5,218.3"/>
		<circle class="st7" cx="72.9" cy="218.3" r="32.6"/>
		<path class="st4" d="M93.5,218.3c0,11.4-9.2,20.6-20.6,20.6c-11.4,0-20.6-9.2-20.6-20.6s9.2-20.6,20.6-20.6
			C84.3,197.7,93.5,206.9,93.5,218.3"/>
		<path class="st6" d="M311.4,174.8c0,21-17,38-38,38c-21,0-37.9-17-37.9-38s17-38,37.9-38C294.4,136.8,311.4,153.8,311.4,174.8"/>
		<circle class="st7" cx="273.5" cy="174.8" r="38"/>
		<g class="st8">
			<g>
				<defs>
					<rect id="SVGID_5_" x="244.5" y="145.8" width="58" height="58"/>
				</defs>
				<clipPath id="SVGID_6_">
					<use xlink:href="#SVGID_5_"  style="overflow:visible;"/>
				</clipPath>
				<circle class="st9" cx="273.5" cy="174.8" r="24"/>
			</g>
		</g>
		<line class="st2" x1="94.8" y1="308.2" x2="245.4" y2="38"/>
		<line class="st3" x1="94.8" y1="308.2" x2="245.4" y2="38"/>
	</g>
</g>
</svg>
